<svg width="37" height="37" viewBox="0 0 37 37" fill="none" xmlns="http://www.w3.org/2000/svg">
<path d="M16.9584 13.875C16.9584 16.4342 14.8925 18.5 12.3334 18.5C9.77421 18.5 7.70837 16.4342 7.70837 13.875C7.70837 11.3158 9.77421 9.25001 12.3334 9.25001C14.8925 9.25001 16.9584 11.3158 16.9584 13.875ZM21.5834 30.8333H3.08337V27.75C3.08337 24.3429 7.23046 21.5833 12.3334 21.5833C17.4363 21.5833 21.5834 24.3429 21.5834 27.75M10.7917 13.875C10.7917 14.7229 11.4855 15.4167 12.3334 15.4167C13.1813 15.4167 13.875 14.7229 13.875 13.875C13.875 13.0271 13.1813 12.3333 12.3334 12.3333C11.4855 12.3333 10.7917 13.0271 10.7917 13.875ZM6.16671 27.75H18.5C18.5 26.0542 15.7405 24.6667 12.3334 24.6667C8.92629 24.6667 6.16671 26.0542 6.16671 27.75ZM33.9167 18.5V21.5833H20.0417V18.5M33.9167 12.3333V15.4167H20.0417V12.3333M33.9167 6.16667V9.25001H20.0417V6.16667H33.9167Z" fill="#169A92"/>
</svg>
