<svg width="34" height="33" viewBox="0 0 34 33" fill="none" xmlns="http://www.w3.org/2000/svg">
<path d="M13.8 11.2176H11.7312C11.0064 11.2176 10.312 11.4951 9.80005 11.9884M20.2 11.2176H22.2688C22.9936 11.2176 23.688 11.4951 24.2 11.9884" stroke="#169A92" stroke-width="1.5" stroke-linecap="round" stroke-linejoin="round"/>
<path d="M17 32.028C25.8366 32.028 33 25.1264 33 16.6129C33 8.0994 25.8366 1.19785 17 1.19785C8.16344 1.19785 1 8.0994 1 16.6129C1 25.1264 8.16344 32.028 17 32.028Z" stroke="#169A92" stroke-width="1.5" stroke-linecap="round" stroke-linejoin="round"/>
<path d="M9 18.9252L1 16.6129M25 18.9252L33 16.6129M9 25.0912L3.4 24.3204M25 25.0912L30.6 24.3204M9.5008 25.7386C8.8336 23.6314 8.8336 20.3896 9.4992 18.2808C9.912 16.9736 11.0768 16.6129 12.3888 16.6129H21.6112C22.9216 16.6129 24.0848 16.9721 24.4992 18.2777C25.1664 20.3865 25.1664 23.6298 24.4992 25.7386C24.0848 27.0443 22.9216 27.4035 21.6112 27.4035H12.3888C11.0784 27.4035 9.9152 27.0443 9.5008 25.7386Z" stroke="#169A92" stroke-width="1.5" stroke-linecap="round" stroke-linejoin="round"/>
</svg>
