<svg width="34" height="34" viewBox="0 0 34 34" fill="none" xmlns="http://www.w3.org/2000/svg">
<path d="M29.7168 28.5049C30.8014 29.0361 31.6979 29.7832 32.4062 30.7461C33.1146 31.709 33.5628 32.7936 33.751 34H31.9248C31.8031 33.3691 31.5762 32.7826 31.2441 32.2402C30.9121 31.6979 30.5081 31.2331 30.0322 30.8457C29.5563 30.4583 29.0195 30.1484 28.4219 29.916C27.8242 29.6836 27.2044 29.5729 26.5625 29.584C25.9095 29.584 25.2897 29.6947 24.7031 29.916C24.1165 30.1374 23.5798 30.4417 23.0928 30.8291C22.6058 31.2165 22.2018 31.6868 21.8809 32.2402C21.5599 32.7936 21.333 33.3802 21.2002 34H19.374C19.5511 32.8047 19.9938 31.7256 20.7021 30.7627C21.4105 29.7998 22.3125 29.0472 23.4082 28.5049C22.7773 28.0068 22.2904 27.4036 21.9473 26.6953C21.6042 25.987 21.4271 25.2344 21.416 24.4375C21.416 23.9395 21.4824 23.458 21.6152 22.9932C21.748 22.5283 21.9473 22.0911 22.2129 21.6816C22.4785 21.2721 22.7939 20.9069 23.1592 20.5859C23.5244 20.265 23.9339 19.9938 24.3877 19.7725C24.0889 19.3408 23.7458 18.959 23.3584 18.627C22.971 18.2949 22.5505 18.0016 22.0967 17.7471C21.6429 17.4925 21.167 17.3099 20.6689 17.1992C20.1709 17.0885 19.6562 17.0221 19.125 17C18.2396 17 17.3929 17.1715 16.585 17.5146C15.777 17.8577 15.0742 18.3613 14.4766 19.0254C14.7422 19.7448 14.875 20.4863 14.875 21.25C14.875 22.2682 14.6481 23.2256 14.1943 24.1221C13.7406 25.0186 13.1042 25.7712 12.2852 26.3799C13.0046 26.7451 13.652 27.1934 14.2275 27.7246C14.8031 28.2559 15.3011 28.8535 15.7217 29.5176C16.1423 30.1816 16.4577 30.89 16.668 31.6426C16.8783 32.3952 16.9889 33.181 17 34H14.875C14.875 33.1257 14.709 32.3011 14.377 31.5264C14.0449 30.7516 13.5911 30.0765 13.0156 29.501C12.4401 28.9255 11.7594 28.4661 10.9736 28.123C10.1878 27.7799 9.36328 27.6139 8.5 27.625C7.61458 27.625 6.79004 27.791 6.02637 28.123C5.2627 28.4551 4.58757 28.9089 4.00098 29.4844C3.41439 30.0599 2.95508 30.7406 2.62305 31.5264C2.29102 32.3122 2.125 33.1367 2.125 34H0C0 33.1921 0.110677 32.4118 0.332031 31.6592C0.553385 30.9066 0.868815 30.1982 1.27832 29.5342C1.68783 28.8701 2.18034 28.2725 2.75586 27.7412C3.33138 27.21 3.98438 26.7562 4.71484 26.3799C3.89583 25.7712 3.25944 25.0186 2.80566 24.1221C2.35189 23.2256 2.125 22.2682 2.125 21.25C2.125 20.3757 2.29102 19.5511 2.62305 18.7764C2.95508 18.0016 3.40885 17.3265 3.98438 16.751C4.5599 16.1755 5.23503 15.7161 6.00977 15.373C6.78451 15.0299 7.61458 14.8639 8.5 14.875C9.44076 14.875 10.3317 15.0742 11.1729 15.4727C12.014 15.8711 12.7445 16.4245 13.3643 17.1328C13.652 16.8561 13.9619 16.6071 14.2939 16.3857C14.626 16.1644 14.9746 15.9541 15.3398 15.7549C14.5208 15.1462 13.8844 14.3936 13.4307 13.4971C12.9769 12.6006 12.75 11.6432 12.75 10.625C12.75 9.75065 12.916 8.92611 13.248 8.15137C13.5801 7.37663 14.0339 6.7015 14.6094 6.12598C15.1849 5.55046 15.86 5.09115 16.6348 4.74805C17.4095 4.40495 18.2396 4.23893 19.125 4.25C19.9993 4.25 20.8239 4.41602 21.5986 4.74805C22.3734 5.08008 23.0485 5.53385 23.624 6.10938C24.1995 6.6849 24.6589 7.36556 25.002 8.15137C25.3451 8.93717 25.5111 9.76172 25.5 10.625C25.5 11.6432 25.2731 12.6006 24.8193 13.4971C24.3656 14.3936 23.7292 15.1462 22.9102 15.7549C23.6849 16.1644 24.3822 16.6624 25.002 17.249C25.6217 17.8356 26.1475 18.5163 26.5791 19.291C27.2874 19.291 27.9515 19.4238 28.5713 19.6895C29.1911 19.9551 29.7389 20.3258 30.2148 20.8018C30.6908 21.2777 31.056 21.82 31.3105 22.4287C31.5651 23.0374 31.6979 23.707 31.709 24.4375C31.709 25.2344 31.5374 25.987 31.1943 26.6953C30.8512 27.4036 30.3587 28.0068 29.7168 28.5049ZM8.5 25.5C9.08659 25.5 9.63444 25.3893 10.1436 25.168C10.6527 24.9466 11.1064 24.6423 11.5049 24.2549C11.9033 23.8675 12.2077 23.4193 12.418 22.9102C12.6283 22.401 12.7389 21.8477 12.75 21.25C12.75 20.6634 12.6393 20.1156 12.418 19.6064C12.1966 19.0973 11.8923 18.6436 11.5049 18.2451C11.1175 17.8467 10.6693 17.5423 10.1602 17.332C9.65104 17.1217 9.09766 17.0111 8.5 17C7.91341 17 7.36556 17.1107 6.85645 17.332C6.34733 17.5534 5.89355 17.8577 5.49512 18.2451C5.09668 18.6325 4.79232 19.0807 4.58203 19.5898C4.37174 20.099 4.26107 20.6523 4.25 21.25C4.25 21.8366 4.36068 22.3844 4.58203 22.8936C4.80339 23.4027 5.10775 23.8564 5.49512 24.2549C5.88249 24.6533 6.33073 24.9577 6.83984 25.168C7.34896 25.3783 7.90234 25.4889 8.5 25.5ZM14.875 10.625C14.875 11.2116 14.9857 11.7594 15.207 12.2686C15.4284 12.7777 15.7327 13.2314 16.1201 13.6299C16.5075 14.0283 16.9557 14.3327 17.4648 14.543C17.974 14.7533 18.5273 14.8639 19.125 14.875C19.7116 14.875 20.2594 14.7643 20.7686 14.543C21.2777 14.3216 21.7314 14.0173 22.1299 13.6299C22.5283 13.2425 22.8327 12.7943 23.043 12.2852C23.2533 11.776 23.3639 11.2227 23.375 10.625C23.375 10.0384 23.2643 9.49056 23.043 8.98145C22.8216 8.47233 22.5173 8.01855 22.1299 7.62012C21.7425 7.22168 21.2943 6.91732 20.7852 6.70703C20.276 6.49674 19.7227 6.38607 19.125 6.375C18.5384 6.375 17.9906 6.48568 17.4814 6.70703C16.9723 6.92839 16.5186 7.23275 16.1201 7.62012C15.7217 8.00749 15.4173 8.45573 15.207 8.96484C14.9967 9.47396 14.8861 10.0273 14.875 10.625ZM26.5625 21.084C26.0977 21.084 25.666 21.1725 25.2676 21.3496C24.8691 21.5267 24.515 21.7646 24.2051 22.0635C23.8952 22.3623 23.6517 22.7165 23.4746 23.126C23.2975 23.5355 23.209 23.9727 23.209 24.4375C23.209 24.9023 23.2975 25.334 23.4746 25.7324C23.6517 26.1309 23.8896 26.485 24.1885 26.7949C24.4873 27.1048 24.8415 27.3483 25.251 27.5254C25.6605 27.7025 26.0977 27.791 26.5625 27.791C27.0273 27.791 27.459 27.7025 27.8574 27.5254C28.2559 27.3483 28.61 27.1104 28.9199 26.8115C29.2298 26.5127 29.4733 26.1585 29.6504 25.749C29.8275 25.3395 29.916 24.9023 29.916 24.4375C29.916 23.9727 29.8275 23.541 29.6504 23.1426C29.4733 22.7441 29.2354 22.39 28.9365 22.0801C28.6377 21.7702 28.2835 21.5267 27.874 21.3496C27.4645 21.1725 27.0273 21.084 26.5625 21.084Z" fill="#169A92"/>
</svg>
