<svg width="47" height="47" viewBox="0 0 47 47" fill="none" xmlns="http://www.w3.org/2000/svg">
<path d="M23.5548 33.7421C23.9883 33.7421 24.3538 33.5933 24.6515 33.2956C24.9492 32.9979 25.098 32.6324 25.098 32.1989C25.098 31.7655 24.9479 31.3999 24.6476 31.1023C24.3499 30.8046 23.9844 30.6558 23.5509 30.6558C23.1175 30.6558 22.7519 30.8052 22.4542 31.1042C22.1566 31.4032 22.0084 31.7687 22.0097 32.2009C22.0097 32.6343 22.1585 32.9999 22.4562 33.2975C22.7565 33.5952 23.1227 33.744 23.5548 33.744M22.5424 27.258H24.4341C24.4837 26.4068 24.6437 25.7149 24.9139 25.1822C25.1842 24.6508 25.7397 23.972 26.5805 23.1455C27.4552 22.2721 28.1053 21.4894 28.531 20.7975C28.9566 20.1056 29.17 19.3053 29.1713 18.3966C29.1713 16.8534 28.6295 15.6236 27.5459 14.7071C26.461 13.7906 25.1776 13.3323 23.6958 13.3323C22.2871 13.3323 21.0912 13.7149 20.1082 14.4799C19.1251 15.2463 18.4051 16.1262 17.9481 17.1197L19.7498 17.8659C20.0631 17.153 20.5116 16.5231 21.0952 15.9761C21.6788 15.4278 22.5208 15.1536 23.6214 15.1536C24.8904 15.1536 25.8174 15.5022 26.4023 16.1993C26.9884 16.8965 27.2815 17.6629 27.2815 18.4984C27.2815 19.1773 27.0981 19.7831 26.7312 20.3157C26.3657 20.8497 25.8892 21.3863 25.3017 21.9255C24.1658 22.9726 23.4217 23.8603 23.0692 24.5888C22.7167 25.3173 22.5411 26.2071 22.5424 27.258ZM23.5059 41.125C21.0697 41.125 18.7785 40.6628 16.6321 39.7385C14.4871 38.8129 12.6208 37.5569 11.0332 35.9707C9.44569 34.3844 8.1891 32.5201 7.26346 30.3777C6.33782 28.2353 5.875 25.9447 5.875 23.5059C5.875 21.0671 6.33782 18.7758 7.26346 16.6321C8.18779 14.4871 9.44178 12.6208 11.0254 11.0332C12.6091 9.44569 14.474 8.1891 16.6204 7.26346C18.7667 6.33782 21.058 5.875 23.4941 5.875C25.9303 5.875 28.2215 6.33782 30.3679 7.26346C32.5129 8.18779 34.3792 9.44243 35.9667 11.0274C37.5543 12.6123 38.8109 14.4773 39.7365 16.6223C40.6622 18.7674 41.125 21.058 41.125 23.4941C41.125 25.9303 40.6628 28.2215 39.7385 30.3679C38.8142 32.5142 37.5582 34.3805 35.9707 35.9667C34.3831 37.553 32.5188 38.8096 30.3777 39.7365C28.2366 40.6635 25.946 41.1263 23.5059 41.125ZM23.5 39.1667C27.8736 39.1667 31.5781 37.649 34.6135 34.6135C37.649 31.5781 39.1667 27.8736 39.1667 23.5C39.1667 19.1264 37.649 15.4219 34.6135 12.3865C31.5781 9.35104 27.8736 7.83333 23.5 7.83333C19.1264 7.83333 15.4219 9.35104 12.3865 12.3865C9.35104 15.4219 7.83333 19.1264 7.83333 23.5C7.83333 27.8736 9.35104 31.5781 12.3865 34.6135C15.4219 37.649 19.1264 39.1667 23.5 39.1667Z" fill="#169A92"/>
</svg>
