<svg width="43" height="43" viewBox="0 0 43 43" fill="none" xmlns="http://www.w3.org/2000/svg">
<path d="M21.4319 35.8333C17.7936 35.8333 14.6218 34.6449 11.9163 32.2679C9.21211 29.8922 7.64739 26.9001 7.22217 23.2917H9.03354C9.52088 26.3733 10.9249 28.9354 13.2458 30.9779C15.5666 33.0204 18.2953 34.0417 21.4319 34.0417C24.9256 34.0417 27.889 32.8251 30.3221 30.392C32.7552 27.9589 33.9723 24.9949 33.9735 21.5C33.9747 18.005 32.7576 15.041 30.3221 12.6079C27.8867 10.1749 24.9232 8.95832 21.4319 8.95832C19.5769 8.95832 17.8342 9.3501 16.2038 10.1337C14.5734 10.916 13.1341 11.994 11.8859 13.3676H16.331V15.1593H8.89021V7.72028H10.6819V11.9988C12.0674 10.4783 13.6907 9.29336 15.5516 8.44411C17.4126 7.59486 19.3727 7.16905 21.4319 7.16666C23.4182 7.16666 25.2804 7.54052 27.0183 8.28824C28.7562 9.03596 30.2743 10.0596 31.5727 11.3592C32.8711 12.6587 33.8947 14.1769 34.6436 15.9136C35.3925 17.6503 35.7664 19.5124 35.7652 21.5C35.764 23.4875 35.3902 25.3497 34.6436 27.0864C33.8971 28.8231 32.8735 30.3413 31.5727 31.6408C30.272 32.9404 28.7538 33.964 27.0183 34.7117C25.2828 35.4595 23.4206 35.8333 21.4319 35.8333ZM27.1724 28.4051L20.6382 21.8727V12.5417H22.4298V21.1273L28.4391 27.1366L27.1724 28.4051Z" fill="#169A92"/>
</svg>
