<svg width="37" height="37" viewBox="0 0 37 37" fill="none" xmlns="http://www.w3.org/2000/svg">
<path d="M1.54077 28.4926L7.99991 33.8761C8.94978 34.667 10.1468 35.1 11.3828 35.0998H28.4107C29.6264 35.0998 30.6122 34.114 30.6122 32.8983C30.6122 30.4669 28.6406 28.4926 26.2066 28.4926H14.3692M21.9753 2.72478C21.6249 2.72478 21.2888 2.864 21.041 3.11182C20.7931 3.35963 20.6539 3.69574 20.6539 4.04621V7.76471H16.9381C16.5876 7.76471 16.2515 7.90393 16.0037 8.15175C15.7558 8.39956 15.6166 8.73567 15.6166 9.08614V13.3808C15.6166 13.7312 15.7558 14.0674 16.0037 14.3152C16.2515 14.563 16.5876 14.7022 16.9381 14.7022H20.6539V18.4181C20.6539 18.7685 20.7931 19.1046 21.041 19.3525C21.2888 19.6003 21.6249 19.7395 21.9753 19.7395H26.27C26.6204 19.7395 26.9566 19.6003 27.2044 19.3525C27.4522 19.1046 27.5914 18.7685 27.5914 18.4181V14.7022H31.3073C31.6577 14.7022 31.9938 14.563 32.2417 14.3152C32.4895 14.0674 32.6287 13.7312 32.6287 13.3808V9.08614C32.6287 8.73567 32.4895 8.39956 32.2417 8.15175C31.9938 7.90393 31.6577 7.76471 31.3073 7.76471H27.5914V4.04357C27.5914 3.6931 27.4522 3.35699 27.2044 3.10917C26.9566 2.86136 26.6204 2.72214 26.27 2.72214L21.9753 2.72478Z" stroke="#169A92" stroke-linecap="round" stroke-linejoin="round"/>
<path d="M9.46934 25.8498L11.4515 27.8319C11.7118 28.0922 12.0208 28.2987 12.3609 28.4396C12.701 28.5805 13.0655 28.653 13.4336 28.653C13.8017 28.653 14.1663 28.5805 14.5064 28.4396C14.8465 28.2987 15.1555 28.0922 15.4158 27.8319C15.6761 27.5716 15.8826 27.2626 16.0234 26.9225C16.1643 26.5824 16.2368 26.2179 16.2368 25.8498C16.2368 25.4817 16.1643 25.1172 16.0234 24.7771C15.8826 24.437 15.6761 24.1279 15.4158 23.8676L12.3395 20.7914C11.3485 19.8 10.0042 19.2429 8.60249 19.2426H1.54077" stroke="#169A92" stroke-linecap="round" stroke-linejoin="round"/>
</svg>
