<svg width="45" height="45" viewBox="0 0 45 45" fill="none" xmlns="http://www.w3.org/2000/svg">
<path fill-rule="evenodd" clip-rule="evenodd" d="M9.37502 16.875C9.37502 13.394 10.7578 10.0556 13.2192 7.59422C15.6807 5.13281 19.0191 3.75 22.5 3.75C25.981 3.75 29.3194 5.13281 31.7808 7.59422C34.2422 10.0556 35.625 13.394 35.625 16.875V23.9325L39.0413 30.765C39.1985 31.0795 39.2728 31.4289 39.257 31.7802C39.2412 32.1314 39.1359 32.4728 38.951 32.7719C38.7661 33.071 38.5079 33.3178 38.2008 33.489C37.8937 33.6602 37.5479 33.7501 37.1963 33.75H29.7638C29.3467 35.3592 28.4071 36.7844 27.0924 37.8017C25.7777 38.8191 24.1624 39.3711 22.5 39.3711C20.8377 39.3711 19.2223 38.8191 17.9077 37.8017C16.593 36.7844 15.6533 35.3592 15.2363 33.75H7.80377C7.45217 33.7501 7.10639 33.6602 6.79927 33.489C6.49216 33.3178 6.23391 33.071 6.04904 32.7719C5.86418 32.4728 5.75885 32.1314 5.74305 31.7802C5.72725 31.4289 5.80151 31.0795 5.95877 30.765L9.37502 23.9325V16.875ZM19.2525 33.75C19.5817 34.32 20.0551 34.7934 20.6251 35.1225C21.1952 35.4516 21.8418 35.6248 22.5 35.6248C23.1583 35.6248 23.8049 35.4516 24.3749 35.1225C24.945 34.7934 25.4184 34.32 25.7475 33.75H19.2525ZM22.5 7.5C20.0136 7.5 17.629 8.48772 15.8709 10.2459C14.1127 12.004 13.125 14.3886 13.125 16.875V23.9325C13.125 24.5144 12.9895 25.0883 12.7294 25.6088L10.5356 30H34.4663L32.2725 25.6088C32.0117 25.0884 31.8756 24.5145 31.875 23.9325V16.875C31.875 14.3886 30.8873 12.004 29.1291 10.2459C27.371 8.48772 24.9864 7.5 22.5 7.5Z" fill="#169A92"/>
</svg>
