<svg width="44" height="44" viewBox="0 0 44 44" fill="none" xmlns="http://www.w3.org/2000/svg">
<path d="M9.1667 31.8725V14.85L6.32503 8.60199C6.22848 8.37832 6.22481 8.14182 6.31403 7.89249C6.40325 7.64316 6.5597 7.46899 6.78336 7.36999C7.00703 7.27099 7.24414 7.2661 7.4947 7.35532C7.74525 7.44455 7.9182 7.59916 8.01353 7.81916L11.154 14.7583H32.846L35.9865 7.82099C36.0831 7.59732 36.256 7.44088 36.5054 7.35166C36.7559 7.26243 36.993 7.26916 37.2167 7.37182C37.4404 7.46838 37.5968 7.64193 37.686 7.89249C37.7753 8.14305 37.7716 8.37955 37.675 8.60199L34.8334 14.85V31.8725C34.8334 32.6914 34.5449 33.3899 33.968 33.968C33.3911 34.5449 32.6926 34.8333 31.8725 34.8333H12.1275C11.3086 34.8333 10.6101 34.5449 10.032 33.968C9.45514 33.3911 9.1667 32.6926 9.1667 31.8725ZM18.3334 22.9167H25.6667C25.9283 22.9167 26.1464 22.8293 26.3212 22.6545C26.496 22.4797 26.5834 22.2615 26.5834 22C26.5834 21.7384 26.496 21.5203 26.3212 21.3455C26.1464 21.1707 25.9283 21.0833 25.6667 21.0833H18.3334C18.073 21.0833 17.8549 21.1707 17.6789 21.3455C17.5029 21.5203 17.4155 21.7384 17.4167 22C17.4179 22.2615 17.5053 22.4797 17.6789 22.6545C17.8524 22.8293 18.0706 22.9167 18.3334 22.9167ZM12.1294 33H31.8725C32.2013 33 32.4714 32.8943 32.6829 32.6828C32.8943 32.4714 33 32.2013 33 31.8725V16.5917H11V31.8725C11 32.2013 11.1058 32.4714 11.3172 32.6828C11.5286 32.8943 11.7994 33 12.1294 33Z" fill="#169A92"/>
</svg>
