<svg width="33" height="33" viewBox="0 0 33 33" fill="none" xmlns="http://www.w3.org/2000/svg">
<path d="M29.4643 29.4643C29.4643 30.0894 29.216 30.689 28.7739 31.131C28.3319 31.5731 27.7323 31.8214 27.1072 31.8214H5.89291C5.26776 31.8214 4.66821 31.5731 4.22616 31.131C3.78411 30.689 3.53577 30.0894 3.53577 29.4643V3.5357C3.53577 2.91055 3.78411 2.311 4.22616 1.86895C4.66821 1.4269 5.26776 1.17856 5.89291 1.17856H21.2143L29.4643 9.42856V29.4643Z" stroke="#169A92" stroke-linecap="round" stroke-linejoin="round"/>
<path d="M14.8571 11.2459C14.5883 11.2459 14.3305 11.3527 14.1404 11.5428C13.9503 11.7329 13.8435 11.9907 13.8435 12.2595V15.1069H10.9984C10.73 15.1069 10.4726 15.2134 10.2826 15.4029C10.0925 15.5925 9.98549 15.8497 9.98486 16.1181V19.4063C9.98486 19.9673 10.4398 20.4199 10.9984 20.4199H13.8435V23.265C13.8435 23.826 14.2984 24.2786 14.8571 24.2786H18.1453C18.4141 24.2786 18.6719 24.1718 18.862 23.9817C19.0521 23.7916 19.1589 23.5338 19.1589 23.265V20.4199H22.0039C22.2728 20.4199 22.5306 20.3131 22.7206 20.123C22.9107 19.933 23.0175 19.6752 23.0175 19.4063V16.1181C23.0175 15.8493 22.9107 15.5915 22.7206 15.4014C22.5306 15.2113 22.2728 15.1046 22.0039 15.1046H19.1589V12.2618C19.1589 11.993 19.0521 11.7352 18.862 11.5451C18.6719 11.3551 18.4141 11.2483 18.1453 11.2483L14.8571 11.2459Z" stroke="#169A92" stroke-linecap="round" stroke-linejoin="round"/>
</svg>
