<svg width="40" height="40" viewBox="0 0 40 40" fill="none" xmlns="http://www.w3.org/2000/svg">
<path fill-rule="evenodd" clip-rule="evenodd" d="M20.9384 5.33331H19.0617L17.9867 9.62998L16.9084 9.96331C16.28 10.1569 15.6712 10.4092 15.09 10.7166L14.0917 11.245L10.2917 8.96498L8.96504 10.2933L11.245 14.0933L10.7167 15.09C10.4086 15.6711 10.1559 16.2799 9.96171 16.9083L9.63004 17.9866L5.33337 19.0616V20.9383L9.63004 22.0133L9.96337 23.0916C10.1556 23.7228 10.4067 24.3289 10.7167 24.91L11.245 25.9083L8.96504 29.7083L10.2934 31.035L14.0934 28.755L15.09 29.2833C15.6712 29.5922 16.2773 29.8439 16.9084 30.0383L17.9867 30.37L19.0617 34.6666H20.9384L22.0134 30.37L23.0917 30.0366C23.7201 29.843 24.3289 29.5908 24.91 29.2833L25.9084 28.755L29.7084 31.035L31.035 29.7066L28.755 25.9066L29.2834 24.91C29.5923 24.3289 29.8439 23.7228 30.0384 23.0916L30.37 22.0133L34.6667 20.9383V19.0616L30.37 17.9866L30.0367 16.9083C29.8431 16.28 29.5909 15.6712 29.2834 15.09L28.755 14.0916L31.035 10.2916L29.7067 8.96498L25.9067 11.245L24.91 10.7166C24.3289 10.4086 23.7201 10.1558 23.0917 9.96165L22.0134 9.62998L20.9384 5.33331ZM25.8467 8.94998L28.9017 7.11665C29.2203 6.92558 29.5935 6.84641 29.9622 6.89171C30.3309 6.937 30.6739 7.10416 30.9367 7.36665L32.6334 9.06331C32.8959 9.32615 33.063 9.66914 33.1083 10.0378C33.1536 10.4065 33.0744 10.7798 32.8834 11.0983L31.05 14.1533C31.4167 14.8422 31.7167 15.5644 31.95 16.32L35.405 17.185C35.7655 17.2753 36.0854 17.4834 36.314 17.7763C36.5425 18.0692 36.6667 18.4301 36.6667 18.8016V21.1983C36.6667 21.5699 36.5425 21.9308 36.314 22.2237C36.0854 22.5166 35.7655 22.7247 35.405 22.815L31.95 23.68C31.7167 24.4355 31.4167 25.1578 31.05 25.8466L32.8834 28.9016C33.0744 29.2202 33.1536 29.5935 33.1083 29.9621C33.063 30.3308 32.8959 30.6738 32.6334 30.9366L30.9367 32.6333C30.6739 32.8958 30.3309 33.063 29.9622 33.1083C29.5935 33.1535 29.2203 33.0744 28.9017 32.8833L25.8467 31.05C25.1578 31.4166 24.4356 31.7166 23.68 31.95L22.815 35.405C22.7248 35.7654 22.5166 36.0853 22.2237 36.3139C21.9308 36.5425 21.5699 36.6666 21.1984 36.6666H18.8017C18.4302 36.6666 18.0693 36.5425 17.7764 36.3139C17.4835 36.0853 17.2753 35.7654 17.185 35.405L16.32 31.95C15.5712 31.7186 14.8458 31.4172 14.1534 31.05L11.0984 32.8833C10.7798 33.0744 10.4066 33.1535 10.0379 33.1083C9.6692 33.063 9.32621 32.8958 9.06337 32.6333L7.36671 30.9366C7.10422 30.6738 6.93706 30.3308 6.89177 29.9621C6.84647 29.5935 6.92564 29.2202 7.11671 28.9016L8.95004 25.8466C8.58278 25.1542 8.28145 24.4288 8.05004 23.68L4.59504 22.815C4.23491 22.7248 3.9152 22.5169 3.68665 22.2243C3.45809 21.9317 3.33376 21.5712 3.33337 21.2V18.8033C3.33338 18.4318 3.45754 18.0709 3.68613 17.778C3.91472 17.4851 4.23463 17.2769 4.59504 17.1866L8.05004 16.3216C8.28337 15.5661 8.58337 14.8439 8.95004 14.155L7.11671 11.1C6.92564 10.7814 6.84647 10.4082 6.89177 10.0395C6.93706 9.6708 7.10422 9.32781 7.36671 9.06498L9.06337 7.36665C9.32621 7.10416 9.6692 6.937 10.0379 6.89171C10.4066 6.84641 10.7798 6.92558 11.0984 7.11665L14.1534 8.94998C14.8423 8.58331 15.5645 8.28331 16.32 8.04998L17.185 4.59498C17.2753 4.23485 17.4831 3.91514 17.7757 3.68658C18.0683 3.45802 18.4288 3.33369 18.8 3.33331H21.1967C21.5683 3.33332 21.9291 3.45748 22.2221 3.68607C22.515 3.91466 22.7231 4.23457 22.8134 4.59498L23.6784 8.04998C24.4339 8.28331 25.1562 8.58331 25.845 8.94998H25.8467ZM20 24.6666C21.2377 24.6666 22.4247 24.175 23.2999 23.2998C24.175 22.4246 24.6667 21.2377 24.6667 20C24.6667 18.7623 24.175 17.5753 23.2999 16.7001C22.4247 15.825 21.2377 15.3333 20 15.3333C18.7624 15.3333 17.5754 15.825 16.7002 16.7001C15.825 17.5753 15.3334 18.7623 15.3334 20C15.3334 21.2377 15.825 22.4246 16.7002 23.2998C17.5754 24.175 18.7624 24.6666 20 24.6666ZM20 26.6666C18.2319 26.6666 16.5362 25.9643 15.286 24.714C14.0358 23.4638 13.3334 21.7681 13.3334 20C13.3334 18.2319 14.0358 16.5362 15.286 15.2859C16.5362 14.0357 18.2319 13.3333 20 13.3333C21.7682 13.3333 23.4638 14.0357 24.7141 15.2859C25.9643 16.5362 26.6667 18.2319 26.6667 20C26.6667 21.7681 25.9643 23.4638 24.7141 24.714C23.4638 25.9643 21.7682 26.6666 20 26.6666Z" fill="#169A92"/>
</svg>
