<svg width="24" height="24" viewBox="0 0 24 24" fill="none" xmlns="http://www.w3.org/2000/svg">
<path d="M17.05 12.536C17.016 9.46 19.654 8.079 19.767 8.015C18.485 6.146 16.518 5.866 15.812 5.841C14.074 5.661 12.39 6.873 11.509 6.873C10.609 6.873 9.226 5.861 7.75 5.891C5.854 5.921 4.098 6.987 3.138 8.647C1.15 12.047 2.645 17.096 4.56 19.797C5.506 21.114 6.616 22.593 8.067 22.545C9.485 22.491 10.003 21.621 11.697 21.621C13.371 21.621 13.851 22.545 15.335 22.515C16.859 22.491 17.839 21.173 18.755 19.842C19.853 18.316 20.288 16.821 20.318 16.731C20.273 16.716 17.089 15.615 17.05 12.536ZM14.389 4.037C15.173 3.087 15.707 1.794 15.563 0.5C14.441 0.545 13.093 1.24 12.283 2.171C11.558 2.998 10.917 4.321 11.091 5.581C12.326 5.676 13.574 4.971 14.389 4.037Z" fill="white"/>
</svg>