<svg width="63" height="63" viewBox="0 0 63 63" fill="none" xmlns="http://www.w3.org/2000/svg">
<path d="M31.5105 63C27.1565 63 23.0615 62.174 19.2255 60.522C15.3918 58.8677 12.0563 56.623 9.219 53.788C6.38167 50.953 4.13583 47.621 2.4815 43.792C0.827167 39.963 0 35.8692 0 31.5105C0 27.1518 0.827167 23.0568 2.4815 19.2255C4.1335 15.3918 6.37467 12.0563 9.205 9.219C12.0353 6.38167 15.3685 4.13583 19.2045 2.4815C23.0405 0.827167 27.1355 0 31.4895 0C35.8435 0 39.9385 0.827167 43.7745 2.4815C47.6082 4.1335 50.9437 6.37583 53.781 9.2085C56.6183 12.0412 58.8642 15.3743 60.5185 19.208C62.1728 23.0417 63 27.1355 63 31.4895C63 35.8435 62.174 39.9385 60.522 43.7745C58.87 47.6105 56.6253 50.946 53.788 53.781C50.9507 56.616 47.6187 58.8618 43.792 60.5185C39.9653 62.1752 35.8715 63.0023 31.5105 63ZM31.5 59.5C39.3167 59.5 45.9375 56.7875 51.3625 51.3625C56.7875 45.9375 59.5 39.3167 59.5 31.5C59.5 23.6833 56.7875 17.0625 51.3625 11.6375C45.9375 6.2125 39.3167 3.5 31.5 3.5C23.6833 3.5 17.0625 6.2125 11.6375 11.6375C6.2125 17.0625 3.5 23.6833 3.5 31.5C3.5 39.3167 6.2125 45.9375 11.6375 51.3625C17.0625 56.7875 23.6833 59.5 31.5 59.5Z" fill="#169A92"/>
</svg>
