<svg width="106" height="106" viewBox="0 0 106 106" fill="none" xmlns="http://www.w3.org/2000/svg">
<path d="M53.0177 106C45.6919 106 38.8019 104.61 32.3477 101.831C25.8974 99.0472 20.2853 95.2704 15.5113 90.5004C10.7374 85.7304 6.9587 80.1242 4.17522 73.6818C1.39174 67.2393 0 60.3513 0 53.0177C0 45.684 1.39174 38.794 4.17522 32.3477C6.95478 25.8974 10.7256 20.2853 15.4878 15.5113C20.2499 10.7374 25.8581 6.9587 32.3123 4.17522C38.7666 1.39174 45.6565 0 52.9823 0C60.3081 0 67.1981 1.39174 73.6523 4.17522C80.1026 6.95478 85.7147 10.7276 90.4886 15.4937C95.2626 20.2597 99.0413 25.8679 101.825 32.3182C104.608 38.7685 106 45.6565 106 52.9823C106 60.3081 104.61 67.1981 101.831 73.6523C99.0511 80.1065 95.2744 85.7186 90.5004 90.4886C85.7265 95.2586 80.1203 99.0374 73.6818 101.825C67.2432 104.612 60.3552 106.004 53.0177 106ZM53 100.111C66.1518 100.111 77.2916 95.5472 86.4194 86.4194C95.5472 77.2916 100.111 66.1518 100.111 53C100.111 39.8481 95.5472 28.7083 86.4194 19.5806C77.2916 10.4528 66.1518 5.88889 53 5.88889C39.8481 5.88889 28.7083 10.4528 19.5806 19.5806C10.4528 28.7083 5.88889 39.8481 5.88889 53C5.88889 66.1518 10.4528 77.2916 19.5806 86.4194C28.7083 95.5472 39.8481 100.111 53 100.111Z" fill="#169A92" fill-opacity="0.55"/>
</svg>
