<svg width="27" height="41" viewBox="0 0 27 41" fill="none" xmlns="http://www.w3.org/2000/svg">
<path d="M13.5 40.5C10.791 40.5 8.484 39.5693 6.579 37.7078C4.674 35.8463 3.7215 33.5753 3.7215 30.8948V10.4715C2.6865 10.4715 1.8075 10.1175 1.0845 9.4095C0.3615 8.7 0 7.82775 0 6.79275V3.7215C0 2.6865 0.3615 1.8075 1.0845 1.0845C1.8075 0.3615 2.6865 0 3.7215 0H23.2357C24.2708 0 25.1573 0.3615 25.8953 1.0845C26.6318 1.806 27 2.685 27 3.7215V6.79275C27 7.82775 26.6318 8.7 25.8953 9.4095C25.1573 10.1175 24.2708 10.4715 23.2357 10.4715V31.5427C23.0617 34.0777 22.0365 36.2048 20.16 37.9237C18.2835 39.6427 16.0635 40.5015 13.5 40.5ZM3.7215 8.2215H23.2357C23.6407 8.2215 23.994 8.08425 24.2955 7.80975C24.5985 7.53525 24.75 7.197 24.75 6.795V3.7215C24.75 3.3165 24.5985 2.97 24.2955 2.682C23.9925 2.394 23.6392 2.25 23.2357 2.25H3.7215C3.3165 2.25 2.97 2.394 2.682 2.682C2.394 2.97 2.25 3.3165 2.25 3.7215V6.79275C2.25 7.19775 2.394 7.53675 2.682 7.80975C2.97 8.08425 3.3165 8.2215 3.7215 8.2215ZM13.5 38.25C15.5775 38.25 17.3445 37.5435 18.801 36.1305C20.2575 34.7175 20.9857 32.9723 20.9857 30.8948V29.2073H13.8015V26.9573H20.9857V20.5538H13.8038V18.3038H20.9857V10.4715H5.9715V30.8948C5.9715 32.9708 6.7065 34.716 8.1765 36.1305C9.651 37.5435 11.4255 38.25 13.5 38.25Z" fill="#169A92"/>
</svg>
