<svg width="37" height="37" viewBox="0 0 37 37" fill="none" xmlns="http://www.w3.org/2000/svg">
<path d="M31.2188 11.5625C32.0137 11.5625 32.7604 11.7131 33.459 12.0142C34.1576 12.3153 34.7658 12.7308 35.2837 13.2607C35.8016 13.7907 36.2171 14.4049 36.5303 15.1035C36.8434 15.8021 37 16.5488 37 17.3438C37 18.0303 36.8856 18.6867 36.6567 19.313C36.4279 19.9393 36.1087 20.4993 35.6992 20.9932C35.2897 21.487 34.8019 21.9146 34.2358 22.2759C33.6698 22.6372 33.0495 22.8841 32.375 23.0166V24.8594C32.375 25.9313 32.2425 26.9731 31.9775 27.9849C31.7126 28.9966 31.3392 29.9601 30.8574 30.8755C30.3757 31.7909 29.7855 32.6159 29.0869 33.3506C28.3883 34.0853 27.6115 34.7297 26.7563 35.2837C25.9012 35.8377 24.9678 36.2593 23.9561 36.5483C22.9443 36.8374 21.8965 36.988 20.8125 37C19.7165 37 18.6686 36.8494 17.6689 36.5483C16.6693 36.2472 15.7419 35.8257 14.8867 35.2837C14.0316 34.7417 13.2547 34.0973 12.5562 33.3506C11.8576 32.6038 11.2674 31.7788 10.7856 30.8755C10.3039 29.9722 9.92448 29.0146 9.64746 28.0029C9.37044 26.9912 9.23796 25.9434 9.25 24.8594V20.7222C7.76855 20.5897 6.45573 20.2344 5.31152 19.6562C4.16732 19.0781 3.19775 18.3193 2.40283 17.3799C1.60791 16.4404 1.01172 15.3504 0.614258 14.1099C0.216797 12.8693 0.0120443 11.5264 0 10.0811V0H5.78125C6.0944 0 6.3654 0.114421 6.59424 0.343262C6.82308 0.572103 6.9375 0.843099 6.9375 1.15625C6.9375 1.4694 6.82308 1.7404 6.59424 1.96924C6.3654 2.19808 6.0944 2.3125 5.78125 2.3125H2.3125V10.0811C2.3125 11.3577 2.48714 12.514 2.83643 13.5498C3.18571 14.5856 3.70964 15.4709 4.4082 16.2056C5.10677 16.9403 5.94987 17.5063 6.9375 17.9038C7.92513 18.3013 9.08138 18.5 10.4062 18.5C11.6227 18.5 12.7308 18.3133 13.7305 17.9399C14.7301 17.5666 15.5793 17.0306 16.2778 16.332C16.9764 15.6335 17.5244 14.7904 17.9219 13.8027C18.3193 12.8151 18.512 11.701 18.5 10.4604V2.3125H15.0312C14.7181 2.3125 14.4471 2.19808 14.2183 1.96924C13.9894 1.7404 13.875 1.4694 13.875 1.15625C13.875 0.843099 13.9894 0.572103 14.2183 0.343262C14.4471 0.114421 14.7181 0 15.0312 0H20.8125V10.0811C20.8125 11.5264 20.6077 12.8693 20.1982 14.1099C19.7887 15.3504 19.1925 16.4404 18.4097 17.3799C17.6268 18.3193 16.6632 19.0781 15.519 19.6562C14.3748 20.2344 13.056 20.5897 11.5625 20.7222V24.8594C11.5625 26.1481 11.7913 27.3827 12.249 28.563C12.7067 29.7433 13.3511 30.7912 14.1821 31.7065C15.0132 32.6219 15.9888 33.3446 17.1089 33.8745C18.229 34.4045 19.4635 34.6755 20.8125 34.6875C22.1494 34.6875 23.3779 34.4165 24.498 33.8745C25.6182 33.3325 26.5938 32.6099 27.4248 31.7065C28.2559 30.8032 28.9002 29.7614 29.3579 28.5811C29.8156 27.4007 30.0505 26.1602 30.0625 24.8594V23.0166C29.388 22.8721 28.7677 22.6252 28.2017 22.2759C27.6356 21.9266 27.1478 21.505 26.7383 21.0112C26.3288 20.5174 26.0096 19.9513 25.7808 19.313C25.5519 18.6746 25.4375 18.0182 25.4375 17.3438C25.4375 16.5488 25.5881 15.8021 25.8892 15.1035C26.1903 14.4049 26.5998 13.7967 27.1177 13.2788C27.6356 12.7609 28.2498 12.3454 28.9604 12.0322C29.6711 11.7191 30.4238 11.5625 31.2188 11.5625ZM31.2188 20.8125C31.7005 20.8125 32.1522 20.7222 32.5737 20.5415C32.9953 20.3608 33.3626 20.1139 33.6758 19.8008C33.9889 19.4876 34.2358 19.1203 34.4165 18.6987C34.5972 18.2772 34.6875 17.8255 34.6875 17.3438C34.6875 16.862 34.5972 16.4103 34.4165 15.9888C34.2358 15.5672 33.9889 15.1999 33.6758 14.8867C33.3626 14.5736 32.9953 14.3267 32.5737 14.146C32.1522 13.9653 31.7005 13.875 31.2188 13.875C30.737 13.875 30.2853 13.9653 29.8638 14.146C29.4422 14.3267 29.0749 14.5736 28.7617 14.8867C28.4486 15.1999 28.2017 15.5672 28.021 15.9888C27.8403 16.4103 27.75 16.862 27.75 17.3438C27.75 17.8255 27.8403 18.2772 28.021 18.6987C28.2017 19.1203 28.4486 19.4876 28.7617 19.8008C29.0749 20.1139 29.4422 20.3608 29.8638 20.5415C30.2853 20.7222 30.737 20.8125 31.2188 20.8125Z" fill="#169A92"/>
</svg>
