<svg width="41" height="41" viewBox="0 0 41 41" fill="none" xmlns="http://www.w3.org/2000/svg">
<path d="M20.5 3.84375C14.1338 3.84375 8.96875 8.75975 8.96875 14.8145C8.96875 21.7812 16.6562 32.8216 19.479 36.6349C19.5962 36.7959 19.7497 36.9269 19.9272 37.0172C20.1046 37.1075 20.3009 37.1546 20.5 37.1546C20.6991 37.1546 20.8954 37.1075 21.0728 37.0172C21.2503 36.9269 21.4038 36.7959 21.521 36.6349C24.3438 32.8232 32.0312 21.7869 32.0312 14.8145C32.0312 8.75975 26.8662 3.84375 20.5 3.84375Z" stroke="#169A92" stroke-linecap="round" stroke-linejoin="round"/>
<path d="M20.5 19.2188C22.6228 19.2188 24.3438 17.4978 24.3438 15.375C24.3438 13.2522 22.6228 11.5312 20.5 11.5312C18.3772 11.5312 16.6562 13.2522 16.6562 15.375C16.6562 17.4978 18.3772 19.2188 20.5 19.2188Z" stroke="#169A92" stroke-linecap="round" stroke-linejoin="round"/>
</svg>
