<svg width="34" height="48" viewBox="0 0 34 48" fill="none" xmlns="http://www.w3.org/2000/svg">
<path fill-rule="evenodd" clip-rule="evenodd" d="M32.9453 16.7956L24.0911 40.074C22.8923 43.135 20.5338 45.5992 17.5281 46.9308C14.5225 48.2624 11.1127 48.3538 8.04003 47.1851C4.96737 46.0164 2.48021 43.682 1.11923 40.6896C-0.24175 37.6971 -0.366534 34.2884 0.772003 31.2044L9.62617 7.92603C10.8249 4.86496 13.1835 2.4008 16.1891 1.06921C19.1948 -0.262382 22.6046 -0.353757 25.6772 0.814945C28.7499 1.98365 31.2371 4.31795 32.598 7.31042C33.959 10.3029 34.0838 13.7116 32.9453 16.7956ZM24.1582 4.8093C22.1556 4.04918 19.9332 4.11482 17.9789 4.9918C16.0246 5.86878 14.4982 7.48543 13.7348 9.48682L4.8786 32.7661C4.11661 34.7693 4.18159 36.9931 5.05924 38.9484C5.93688 40.9036 7.55531 42.4302 9.55848 43.1922C11.5616 43.9541 13.7855 43.8892 15.7407 43.0115C17.696 42.1339 19.2225 40.5154 19.9845 38.5123L28.8387 15.2339C29.5994 13.2309 29.5339 11.0078 28.6567 9.05307C27.7795 7.09829 26.1623 5.57162 24.1602 4.80839L24.1582 4.8093Z" fill="#0A534F"/>
</svg>
