<svg width="33" height="34" viewBox="0 0 33 34" fill="none" xmlns="http://www.w3.org/2000/svg">
<path d="M0.916675 7.57313C0.655119 7.57313 0.436952 7.48313 0.262174 7.30313C0.0873965 7.12313 7.83475e-06 6.90063 7.83475e-06 6.63563V1.51501C7.83475e-06 1.08626 0.141786 0.726258 0.425341 0.435008C0.708897 0.143758 1.0609 -0.00124199 1.48134 8.01281e-06H6.48634C6.74668 8.01281e-06 6.96484 0.0900081 7.14084 0.270008C7.31684 0.450008 7.40484 0.673133 7.40484 0.939383C7.40484 1.20563 7.31684 1.42813 7.14084 1.60688C6.96484 1.78563 6.74729 1.87501 6.48817 1.87501H1.83334V6.63563C1.83334 6.90063 1.74534 7.12313 1.56934 7.30313C1.39334 7.48313 1.17701 7.57313 0.916675 7.57313ZM1.48134 33.75C1.06212 33.75 0.710119 33.605 0.425341 33.315C0.140564 33.025 -0.00121439 32.665 7.83475e-06 32.235V27.1163C7.83475e-06 26.85 0.0880079 26.6269 0.264008 26.4469C0.440008 26.2669 0.658174 26.1775 0.918508 26.1788C1.17884 26.18 1.3964 26.2694 1.57117 26.4469C1.74595 26.6244 1.83334 26.8475 1.83334 27.1163V31.875H6.48817C6.74729 31.875 6.96484 31.965 7.14084 32.145C7.31684 32.325 7.40484 32.5481 7.40484 32.8144C7.40484 33.0806 7.31684 33.3031 7.14084 33.4819C6.96484 33.6606 6.74729 33.75 6.48817 33.75H1.48134ZM26.5137 33.75C26.2533 33.75 26.0352 33.66 25.8592 33.48C25.6832 33.3 25.5958 33.0769 25.597 32.8106C25.5982 32.5444 25.6856 32.3219 25.8592 32.1431C26.0327 31.9644 26.2509 31.875 26.5137 31.875H31.1667V27.1163C31.1667 26.85 31.2547 26.6269 31.4307 26.4469C31.6067 26.2669 31.8248 26.1775 32.0852 26.1788C32.3455 26.18 32.5631 26.2694 32.7378 26.4469C32.9126 26.6244 33 26.8475 33 27.1163V32.235C33 32.665 32.8582 33.025 32.5747 33.315C32.2911 33.605 31.9391 33.75 31.5187 33.75H26.5137ZM32.0815 7.57313C31.8224 7.57313 31.6048 7.48313 31.4288 7.30313C31.2528 7.12313 31.1655 6.90063 31.1667 6.63563V1.87501H26.5137C26.2533 1.87501 26.0352 1.78501 25.8592 1.60501C25.6832 1.42501 25.5958 1.20188 25.597 0.935633C25.5982 0.669383 25.6856 0.446883 25.8592 0.268133C26.0327 0.0893828 26.2509 8.01281e-06 26.5137 8.01281e-06H31.5187C31.9391 8.01281e-06 32.2911 0.145008 32.5747 0.435008C32.8582 0.725008 33 1.08501 33 1.51501V6.63376C33 6.90001 32.912 7.12313 32.736 7.30313C32.56 7.48313 32.3418 7.57313 32.0815 7.57313ZM25.5603 28.4138V26.1413H27.7823V28.4138H25.5603ZM25.5603 23.8706V21.5981H27.7823V23.8706H25.5603ZM23.3402 26.1413V23.8706H25.5603V26.1413H23.3402ZM21.1182 28.4138V26.1413H23.3402V28.4138H21.1182ZM18.898 26.1413V23.8706H21.1182V26.1413H18.898ZM23.3402 21.5981V19.3275H25.5603V21.5981H23.3402ZM21.1182 23.8706V21.5981H23.3402V23.8706H21.1182ZM18.898 21.5981V19.3275H21.1182V21.5981H18.898ZM20.3702 14.4225C19.9497 14.4225 19.599 14.2775 19.3178 13.9875C19.0367 13.6963 18.8962 13.3363 18.8962 12.9075V6.84376C18.8962 6.41376 19.0386 6.05501 19.3233 5.76751C19.6069 5.48001 19.9589 5.33626 20.3793 5.33626H26.3083C26.7288 5.33626 27.0796 5.48188 27.3607 5.77313C27.6418 6.06313 27.7823 6.42313 27.7823 6.85313V12.9169C27.7823 13.3469 27.64 13.7056 27.3552 13.9931C27.0716 14.2806 26.7196 14.4244 26.2992 14.4244L20.3702 14.4225ZM6.69167 28.4138C6.27123 28.4138 5.92045 28.2681 5.63934 27.9769C5.35823 27.6869 5.21768 27.3269 5.21768 26.8969V20.8331C5.21768 20.4031 5.36006 20.045 5.64484 19.7588C5.9284 19.4713 6.2804 19.3275 6.70084 19.3275H12.6298C13.0503 19.3275 13.4011 19.4725 13.6822 19.7625C13.9633 20.0538 14.1038 20.4138 14.1038 20.8425V26.9081C14.1038 27.3369 13.9615 27.695 13.6767 27.9825C13.3919 28.27 13.0399 28.4138 12.6207 28.4138H6.69167ZM6.69167 14.4225C6.27123 14.4225 5.92045 14.2775 5.63934 13.9875C5.35823 13.6963 5.21768 13.3363 5.21768 12.9075V6.84376C5.21768 6.41376 5.36006 6.05501 5.64484 5.76751C5.9284 5.48001 6.2804 5.33626 6.70084 5.33626H12.6298C13.0503 5.33626 13.4011 5.48188 13.6822 5.77313C13.9633 6.06313 14.1038 6.42313 14.1038 6.85313V12.9169C14.1038 13.3469 13.9615 13.7056 13.6767 13.9931C13.3919 14.2806 13.0399 14.4244 12.6207 14.4244L6.69167 14.4225ZM6.83834 26.7544H12.4813V20.985H6.83834V26.7544ZM6.83834 12.765H12.4813V6.99376H6.83834V12.765ZM20.5187 12.765H26.1598V6.99376H20.5187V12.765Z" fill="#169A92"/>
</svg>
