<svg width="34" height="37" viewBox="0 0 34 37" fill="none" xmlns="http://www.w3.org/2000/svg">
<path d="M11.3331 10.5225L17.4412 33.4279C17.7061 34.404 18.3471 35.2354 19.2238 35.7399C20.1004 36.2443 21.1413 36.3808 22.1184 36.1193L29.5046 34.2101C30.4816 33.9465 31.3139 33.3058 31.8186 32.4287C32.3233 31.5516 32.4591 30.51 32.196 29.5329L25.2861 3.5734C25.0226 2.59639 24.3819 1.76404 23.5048 1.25934C22.6277 0.754633 21.5861 0.6189 20.609 0.88198L13.2424 2.8481C12.4465 3.06569 11.7448 3.53419 11.2371 4.18499M3.69796 29.0448C4.47961 29.0448 5.22925 28.7343 5.78196 28.1816C6.33468 27.6289 6.64519 26.8792 6.64519 26.0976C6.64519 25.3159 6.33468 24.5663 5.78196 24.0136C5.22925 23.4609 4.47961 23.1504 3.69796 23.1504C2.91631 23.1504 2.16667 23.4609 1.61395 24.0136C1.06124 24.5663 0.750732 25.3159 0.750732 26.0976C0.750732 26.8792 1.06124 27.6289 1.61395 28.1816C2.16667 28.7343 2.91631 29.0448 3.69796 29.0448Z" stroke="#169A92" stroke-width="1.5" stroke-linecap="round" stroke-linejoin="round"/>
</svg>
