<svg width="40" height="28" viewBox="0 0 40 28" fill="none" xmlns="http://www.w3.org/2000/svg">
<path fill-rule="evenodd" clip-rule="evenodd" d="M24.2629 0.421077C19.2872 -0.0986071 14.2731 -0.137351 9.28995 0.305383L5.96216 0.601981C4.62681 0.721744 3.37078 1.28798 2.39679 2.20931C1.4228 3.13063 0.787676 4.35328 0.59394 5.67992C-0.19798 11.0922 -0.19798 16.591 0.59394 22.0034C0.788123 23.3302 1.42366 24.5529 2.398 25.4742C3.37235 26.3954 4.62867 26.9616 5.96426 27.0813L9.29206 27.3758C14.2751 27.8192 19.2893 27.7812 24.265 27.2622L25.544 27.1276C26.8135 26.9944 28.0072 26.4587 28.9507 25.5989C29.8941 24.7391 30.538 23.6001 30.7881 22.3483L37.1976 25.7519C37.4277 25.8741 37.6845 25.9374 37.945 25.9362C38.2056 25.935 38.4618 25.8693 38.6908 25.7449C38.9197 25.6205 39.1143 25.4414 39.2572 25.2234C39.4 25.0055 39.4866 24.7556 39.5093 24.496L39.5619 23.8986C40.146 17.206 40.146 10.4752 39.5619 3.78253L39.5093 3.18512C39.4865 2.92543 39.3996 2.67546 39.2565 2.45755C39.1134 2.23964 38.9186 2.06058 38.6893 1.93639C38.4601 1.8122 38.2037 1.74674 37.943 1.74587C37.6823 1.74501 37.4255 1.80875 37.1955 1.93142L30.7881 5.33494C30.538 4.08318 29.8941 2.9442 28.9507 2.08436C28.0072 1.22453 26.8135 0.688894 25.544 0.555704L24.2629 0.421077ZM9.57183 3.44806C14.3511 3.02114 19.1606 3.05848 23.9327 3.55955L25.2116 3.69418C25.8365 3.76034 26.4216 4.03251 26.8748 4.46781C27.328 4.9031 27.6235 5.4768 27.7148 6.09852C28.4679 11.2332 28.4679 16.4479 27.7148 21.5847C27.6235 22.2065 27.328 22.7802 26.8748 23.2155C26.4216 23.6508 25.8365 23.9229 25.2116 23.9891L23.9327 24.1237C19.1606 24.6248 14.3511 24.6621 9.57183 24.2352L6.24404 23.9365C5.61511 23.8804 5.0234 23.6141 4.56431 23.1806C4.10523 22.7471 3.80551 22.1716 3.71348 21.5469C2.96582 16.4373 2.96582 11.246 3.71348 6.13638C3.80472 5.51117 4.10414 4.93499 4.56333 4.50098C5.02253 4.06698 5.61467 3.80051 6.24404 3.74466L9.57183 3.44806ZM31.2004 8.68797C31.5138 12.1167 31.5138 15.5665 31.2004 18.9953L36.5581 21.8414C36.9413 16.5151 36.9413 11.1682 36.5581 5.84189L31.2004 8.68797Z" fill="#169A92"/>
</svg>
